<?xml version="1.0" encoding="UTF-8"?>
<svg id="randomshape" width="53px" height="53px" viewBox="0 0 53 53" version="1.1" xmlns="http://www.w3.org/2000/svg" xmlns:xlink="http://www.w3.org/1999/xlink">
    <title>Path</title>
    <g id="Page-1" stroke="none" stroke-width="1" fill="none" fill-rule="evenodd">
        <g id="Artboard" transform="translate(-206.000000, -63.000000)" stroke="#000000" stroke-width="2">
            <path id="randomshapepath" d="M208.033124,86.5702883 C229.107153,92.0484463 216.098167,68.2960058 228.633225,65.3116063 C238.589901,62.9410788 230.637725,69.8592581 238.678014,72.6499149 C243.195117,74.2177297 248.435587,71.3895336 253.002757,72.8008587 C264.843247,76.4597499 252.098463,81.0497027 251.864247,83.8548244 C251.423442,89.1341959 260.375599,97.5537589 255.445433,99.3303764 L252.513319,106.139619 C244.674102,108.964532 234.50202,95.8928451 231.099996,98.6534163 C225.633014,103.089597 222.799006,110.374882 217.150238,114.571127 C215.864319,115.526386 212.576343,113.590094 213.063048,112.052347 L212.441085,106.47505 C217.886265,89.2709824 225.169174,96.8463116 208.596355,89.1134627 L208.033124,86.5702883 Z" id="Path"></path>
        </g>
    </g>
</svg>
