<svg id="windicon" xmlns="http://www.w3.org/2000/svg" viewBox="0 0 20 15">
  <defs><style>.cls-1{fill:none;}</style></defs>
  <title>Asset 3</title>
  <g id="Layer_2" data-name="Layer 2">
    <g id="Layer_1-2" data-name="Layer 1">
      <path d="M0,8.11A10,10,0,0,1,4.81,5.83a10,10,0,0,1,5.32,1A17,17,0,0,0,15,8.47,11.52,11.52,0,0,0,20,7.75a9.08,9.08,0,0,1-5.1,1.5A13.92,13.92,0,0,1,9.73,7.77,10.65,10.65,0,0,0,4.88,6.61,12.84,12.84,0,0,0,0,8.11Z"/><path d="M3,11.1A5.55,5.55,0,0,1,6.45,9.56a8,8,0,0,1,3.71,1,11.58,11.58,0,0,0,3.32,1.21A8.51,8.51,0,0,0,17,11.43a6.05,6.05,0,0,1-3.61,1.13,9.23,9.23,0,0,1-3.67-1.09,9.44,9.44,0,0,0-3.31-1.13A7.23,7.23,0,0,0,3,11.1Z"/>
      <path d="M3,3.66A5.49,5.49,0,0,1,6.45,2.13a8,8,0,0,1,3.71,1,11.58,11.58,0,0,0,3.32,1.21A8.35,8.35,0,0,0,17,4a6,6,0,0,1-3.61,1.13A9.38,9.38,0,0,1,9.74,4,9.26,9.26,0,0,0,6.43,2.9,7.35,7.35,0,0,0,3,3.66Z"/>
      <rect class="cls-1" width="20" height="15"/>
    </g>
  </g>
</svg>
